<svg width="165" height="29" viewBox="0 0 165 29" fill="none" xmlns="http://www.w3.org/2000/svg">
<g clip-path="url(#clip0_31_6858)">
<path d="M42.5163 21.4565C46.3903 21.4565 49.2033 19.346 49.2033 16.4001C49.2033 14.7513 47.7722 13.5641 45.8968 13.1794L45.9092 13.0915C48.3644 12.6847 50.104 11.1019 50.104 8.96936C50.104 7.0787 48.3397 5.59473 44.8111 5.59473H36.5572L32.7695 21.4565H42.5163ZM40.9618 8.4857H42.9851C44.2559 8.4857 44.8975 9.03531 44.8975 9.81575C44.8975 10.904 43.9105 11.7064 42.4176 11.7064H40.1968L40.9618 8.4857ZM38.6423 18.2578L39.5059 14.5974H41.8007C43.2443 14.5974 43.9968 15.191 43.9968 16.1033C43.9968 17.4114 42.9234 18.2578 41.1838 18.2578H38.6423ZM49.6722 21.4565H54.5579L58.3456 5.59473H53.4599L49.6722 21.4565ZM62.6268 13.9598C62.9475 12.8056 64.0209 12.0252 65.2917 12.0252C66.4638 12.0252 67.2781 12.6847 67.2781 13.6081C67.2781 13.729 67.2657 13.9049 67.2411 13.9598H62.6268ZM64.2307 21.7534C67.8579 21.7534 70.4489 20.0495 71.1521 17.4993H66.6118C66.3774 18.2028 65.5508 18.6865 64.4774 18.6865C63.0092 18.6865 62.1456 17.8071 62.1456 16.6859C62.1456 16.576 62.1579 16.4551 62.1826 16.3342H71.4605C71.6333 15.7186 71.7073 14.9052 71.7073 14.2456C71.7073 11.0799 69.1657 9.01333 65.5138 9.01333C60.8748 9.01333 57.7904 12.0472 57.7904 16.2023C57.7904 19.6978 60.3319 21.7534 64.2307 21.7534ZM88.6593 9.32111H83.7491L82.0956 16.2462C81.7995 17.4993 80.9483 18.2248 79.7884 18.2248C78.6288 18.2248 77.9624 17.6312 77.9624 16.598C77.9624 16.3671 77.9873 16.1583 78.0244 15.9494L79.6159 9.32111H74.7301L72.978 16.6639C72.867 17.1146 72.8055 17.6752 72.8055 18.1919C72.8055 20.3683 74.4711 21.7643 77.0741 21.7643C78.9743 21.7643 80.5658 20.9179 81.3803 19.4779H81.479L81.0099 21.4565H85.7598L88.6593 9.32111Z" fill="#5F656F"/>
<path d="M101.626 12.4319H101.725L102.292 21.4565H107.178L115.543 5.59473H110.164L105.846 15.4768H105.747L105.328 5.59473H101.281L96.2717 15.4768H96.173L96.4691 5.59473H91.0898L91.9043 21.4565H96.8516L101.626 12.4319ZM118.492 18.6865C117.579 18.6865 116.95 18.2908 116.95 17.6972C116.95 17.0047 117.69 16.532 118.8 16.51L120.91 16.4661L120.725 17.2465C120.528 18.0709 119.565 18.6865 118.492 18.6865ZM116.209 21.6324C117.924 21.6324 119.318 20.9839 119.985 20.0276H120.084L119.738 21.4565H124.488L126.339 13.696C126.401 13.4542 126.45 13.0255 126.45 12.7177C126.45 10.5083 123.995 9.01333 120.38 9.01333C116.9 9.01333 114.334 10.5632 113.791 13.1024H118.196C118.442 12.4649 119.121 12.1351 120.034 12.1351C121.021 12.1351 121.687 12.5089 121.687 13.0694C121.687 13.1464 121.675 13.2234 121.638 13.4102L121.478 14.1137L118.504 14.1687C114.63 14.2456 112.249 15.8285 112.249 18.3457C112.249 20.2364 113.952 21.6324 116.209 21.6324ZM133.421 21.6324C134.186 21.6324 135.049 21.5665 135.419 21.4785L136.16 18.4886C136.024 18.5326 135.789 18.5546 135.271 18.5546C134.149 18.5546 133.692 18.3018 133.692 17.6752C133.692 17.5433 133.717 17.3015 133.754 17.1916L134.79 12.8716H137.443L138.208 9.68384H135.543L136.234 6.7929H131.348L130.657 9.68384H128.634L127.844 12.8716H129.88L128.782 17.5653C128.658 18.1149 128.634 18.5986 128.634 18.9063C128.634 20.7091 130.385 21.6324 133.421 21.6324ZM143.168 13.9598C143.488 12.8056 144.562 12.0252 145.832 12.0252C147.004 12.0252 147.819 12.6847 147.819 13.6081C147.819 13.729 147.807 13.9049 147.782 13.9598H143.168ZM144.771 21.7534C148.399 21.7534 150.989 20.0495 151.693 17.4993H147.152C146.918 18.2028 146.091 18.6865 145.018 18.6865C143.55 18.6865 142.686 17.8071 142.686 16.6859C142.686 16.576 142.699 16.4551 142.723 16.3342H152.001C152.174 15.7186 152.248 14.9052 152.248 14.2456C152.248 11.0799 149.706 9.01333 146.054 9.01333C141.415 9.01333 138.331 12.0472 138.331 16.2023C138.331 19.6978 140.873 21.7534 144.771 21.7534ZM152.445 21.4565H157.343L158.848 15.2569C159.256 13.5861 160.428 12.7837 162.044 12.7837C162.871 12.7837 163.463 12.9705 164.092 13.2343L165.017 9.46399C164.474 9.24415 163.919 9.14524 163.142 9.14524C161.674 9.14524 160.465 9.94765 159.848 11.0799H159.749L160.144 9.32111H155.369L152.445 21.4565Z" fill="#5F656F"/>
</g>
<path fill-rule="evenodd" clip-rule="evenodd" d="M7.27831 0C7.08293 0.549464 6.97656 1.14112 6.97656 1.75762V9.29829H6.976L6.976 15.6911C6.976 19.8636 10.3585 23.2461 14.531 23.2461H15.112C18.9636 23.2461 22.0859 20.1238 22.0859 16.2722C22.0859 12.4206 18.9636 9.29829 15.112 9.29829H12.2215V0H25.5707C26.1872 0 26.7785 0.244916 27.2144 0.680869C27.6503 1.11682 27.8953 1.7081 27.8953 2.32463V10.8531C27.8953 23.842 16.8824 28.1571 14.6741 28.8836C14.2022 29.0388 13.693 29.0388 13.2212 28.8836C11.0128 28.1571 0 23.842 0 10.8531V2.32463C0 1.7081 0.244913 1.11682 0.680861 0.680869C1.11681 0.244916 1.70808 0 2.32461 0H7.27831ZM12.2188 16.1821C12.2188 14.7337 13.3929 13.5596 14.8412 13.5596C16.2896 13.5596 17.4637 14.7337 17.4637 16.1821C17.4637 17.6304 16.2896 18.8046 14.8412 18.8046C13.3929 18.8046 12.2188 17.6304 12.2188 16.1821Z" fill="#5F656F"/>
<defs>
<clipPath id="clip0_31_6858">
<rect width="132" height="27" fill="white" transform="translate(33)"/>
</clipPath>
</defs>
</svg>
