<svg width="184" height="49" viewBox="0 0 184 49" fill="none" xmlns="http://www.w3.org/2000/svg">
<path d="M85.4593 24.2249C85.1819 27.6318 83.8407 30.4059 81.4355 32.5472C79.0626 34.6886 76.2913 35.7507 73.1215 35.7334C69.7577 35.7151 66.8694 34.4936 64.4567 32.0689C62.0764 29.6443 60.8954 26.7439 60.9138 23.3678C60.9322 19.9916 62.1446 17.1204 64.551 14.754C66.99 12.3557 69.8914 11.1657 73.2552 11.184C76.1338 11.1997 78.7003 12.114 80.9546 13.9269C83.2089 15.7399 84.6352 18.1432 85.2335 21.1368L76.1108 21.3765C75.4046 20.3759 74.437 19.8722 73.2079 19.8655C72.2376 19.8603 71.3947 20.2094 70.6793 20.9129C69.9962 21.6166 69.652 22.4507 69.6468 23.4153C69.6415 24.3799 69.9765 25.2339 70.6517 25.9771C71.3594 26.6884 72.1985 27.0466 73.1688 27.0519C73.9451 27.0561 74.6417 26.8349 75.2587 26.388C75.908 25.9414 76.3481 25.3168 76.5789 24.5142L85.4593 24.2249Z" fill="#5F656F"/>
<path d="M86.9023 12.4795H96.4495V35.6654C91.1767 35.6654 86.9023 31.391 86.9023 26.1183V12.4795Z" fill="#5F656F"/>
<ellipse cx="103.72" cy="18.1978" rx="5.71659" ry="5.57283" fill="#5F656F"/>
<path d="M134.403 25.3717H121.761C121.548 24.7643 121.441 24.1569 121.441 23.5496C121.441 22.8815 121.578 22.183 121.852 21.4542H126.096C125.823 19.784 124.895 18.9488 123.312 18.9488C122.308 18.9488 121.471 19.3892 120.802 20.2698C120.133 21.1505 119.798 22.2893 119.798 23.6862C119.798 25.1135 120.117 26.2979 120.756 27.2393C121.395 28.1503 122.217 28.6058 123.221 28.6058C124.073 28.6058 124.879 28.1807 125.64 27.3304L130.387 33.0699C128.196 34.8009 125.731 35.6664 122.993 35.6664C119.737 35.6664 116.968 34.558 114.686 32.3411C112.434 30.0939 111.309 27.3304 111.309 24.0506C111.309 20.8013 112.434 18.0682 114.686 15.8513C116.938 13.6041 119.737 12.4805 123.084 12.4805C126.279 12.4805 128.972 13.5737 131.163 15.7602C133.384 17.9163 134.495 20.6039 134.495 23.8229C134.495 23.9444 134.464 24.4606 134.403 25.3717Z" fill="#5F656F"/>
<path d="M158.962 25.3717H146.319C146.106 24.7643 146 24.1569 146 23.5496C146 22.8815 146.137 22.183 146.41 21.4542H150.655C150.381 19.784 149.453 18.9488 147.871 18.9488C146.867 18.9488 146.03 19.3892 145.361 20.2698C144.691 21.1505 144.357 22.2893 144.357 23.6862C144.357 25.1135 144.676 26.2979 145.315 27.2393C145.954 28.1503 146.776 28.6058 147.78 28.6058C148.632 28.6058 149.438 28.1807 150.199 27.3304L154.945 33.0699C152.755 34.8009 150.29 35.6664 147.551 35.6664C144.296 35.6664 141.527 34.558 139.245 32.3411C136.993 30.0939 135.867 27.3304 135.867 24.0506C135.867 20.8013 136.993 18.0682 139.245 15.8513C141.496 13.6041 144.296 12.4805 147.643 12.4805C150.838 12.4805 153.53 13.5737 155.721 15.7602C157.942 17.9163 159.053 20.6039 159.053 23.8229C159.053 23.9444 159.023 24.4606 158.962 25.3717Z" fill="#5F656F"/>
<path d="M160.41 24.0962C160.41 20.9379 161.547 18.22 163.82 15.9424C166.123 13.6344 168.851 12.4805 172.003 12.4805C175.155 12.4805 177.868 13.6344 180.141 15.9424C182.444 18.22 183.596 20.9379 183.596 24.0962C183.596 27.2545 182.46 29.9724 180.186 32.25C177.913 34.5276 175.185 35.6664 172.003 35.6664C168.821 35.6664 166.093 34.5276 163.82 32.25C161.547 29.9724 160.41 27.2545 160.41 24.0962ZM168.639 24.0962C168.639 25.0072 168.957 25.7968 169.594 26.4649C170.26 27.1026 171.064 27.4215 172.003 27.4215C172.943 27.4215 173.731 27.1026 174.367 26.4649C175.034 25.7968 175.367 25.0072 175.367 24.0962C175.367 23.1548 175.034 22.3652 174.367 21.7275C173.731 21.0594 172.943 20.7254 172.003 20.7254C171.064 20.7254 170.26 21.0594 169.594 21.7275C168.957 22.3652 168.639 23.1548 168.639 24.0962Z" fill="#5F656F"/>
<ellipse cx="24" cy="23.871" rx="24" ry="23.871" fill="#5F656F"/>
<path d="M47.5 23.871C47.5 36.7759 36.9812 47.2419 24 47.2419C11.0188 47.2419 0.5 36.7759 0.5 23.871C0.5 10.9661 11.0188 0.5 24 0.5C36.9812 0.5 47.5 10.9661 47.5 23.871Z" stroke="#A09DCA" stroke-opacity="0.16"/>
<g filter="url(#filter0_d_31_6843)">
<path fill-rule="evenodd" clip-rule="evenodd" d="M26.8715 40.0947C24.6189 40.2311 22.7614 39.7505 20.6381 38.999C18.5148 38.2476 16.57 37.0778 14.9232 35.5614C13.2764 34.045 11.9622 32.214 11.0612 30.1806C10.1602 28.1473 9.69147 25.9545 9.68369 23.7368C9.67592 21.519 10.1293 19.3231 11.016 17.2837C11.9027 15.2443 13.204 13.4044 14.8402 11.8769C16.4763 10.3494 18.4128 9.16648 20.5308 8.40068C22.6488 7.63487 24.5488 7.17043 26.8022 7.29159L26.8022 10.545L26.8022 13.7984C25.4324 13.7247 24.0617 13.9269 22.7742 14.3924C21.4868 14.8579 20.3096 15.577 19.3151 16.5055C18.3205 17.434 17.5294 18.5524 16.9904 19.7921C16.4514 21.0318 16.1758 22.3667 16.1806 23.7148C16.1853 25.0629 16.4702 26.3958 17.0179 27.6318C17.5656 28.8678 18.3645 29.9809 19.3655 30.9026C20.3666 31.8244 21.5487 32.5355 22.8394 32.9923C24.1302 33.4491 25.5022 33.6419 26.8715 33.559L26.8715 40.0947ZM19.2227 17.5303H26.4152L26.4152 31.1611C22.4429 31.1611 19.2227 27.9409 19.2227 23.9686V17.5303ZM31.4281 25.7731C33.7335 25.7731 35.6024 23.9366 35.6024 21.6712C35.6024 19.4058 33.7335 17.5693 31.4281 17.5693C29.1228 17.5693 27.2539 19.4058 27.2539 21.6712C27.2539 23.9366 29.1228 25.7731 31.4281 25.7731Z" fill="#121212"/>
</g>
<defs>
<filter id="filter0_d_31_6843" x="9.68359" y="7.27246" width="33.918" height="40.8455" filterUnits="userSpaceOnUse" color-interpolation-filters="sRGB">
<feFlood flood-opacity="0" result="BackgroundImageFix"/>
<feColorMatrix in="SourceAlpha" type="matrix" values="0 0 0 0 0 0 0 0 0 0 0 0 0 0 0 0 0 0 127 0" result="hardAlpha"/>
<feOffset dx="4" dy="4"/>
<feGaussianBlur stdDeviation="2"/>
<feComposite in2="hardAlpha" operator="out"/>
<feColorMatrix type="matrix" values="0 0 0 0 0.627451 0 0 0 0 0.615686 0 0 0 0 0.792157 0 0 0 0.31 0"/>
<feBlend mode="normal" in2="BackgroundImageFix" result="effect1_dropShadow_31_6843"/>
<feBlend mode="normal" in="SourceGraphic" in2="effect1_dropShadow_31_6843" result="shape"/>
</filter>
</defs>
</svg>
