<svg width="34" height="33" viewBox="0 0 34 33" fill="none" xmlns="http://www.w3.org/2000/svg">
<path d="M16.9679 24.4645C12.4697 24.4645 8.8125 20.8137 8.8125 16.3219C8.8125 11.8237 12.4697 8.17285 16.9679 8.17285C21.4661 8.17285 25.1233 11.8237 25.1233 16.3155C25.1233 20.8073 21.4661 24.4645 16.9679 24.4645ZM23.8426 17.4305C23.6069 17.354 21.6891 16.787 19.5037 17.131C20.4148 19.6286 20.7844 21.6675 20.8544 22.088C22.4218 21.0367 23.5368 19.3674 23.8426 17.4305ZM19.6885 22.7315C19.5865 22.1198 19.1788 19.9918 18.2039 17.456C18.1912 17.4623 18.1721 17.4687 18.1593 17.4687C14.2282 18.8386 12.8201 21.5592 12.6927 21.814C13.8714 22.7315 15.3559 23.2794 16.9679 23.2794C17.93 23.2858 18.8538 23.0883 19.6885 22.7315ZM11.7943 20.9794C11.9536 20.7118 13.865 17.5515 17.4585 16.3856C17.5477 16.3537 17.6433 16.3282 17.7325 16.3028C17.5604 15.9077 17.3693 15.5127 17.1654 15.124C13.6866 16.1626 10.3098 16.118 10.004 16.1116C10.004 16.1817 9.99758 16.2518 9.99758 16.3219C10.004 18.1122 10.6793 19.7433 11.7943 20.9794ZM10.1505 14.901C10.4627 14.9074 13.3298 14.9202 16.592 14.0537C15.4388 12.0021 14.19 10.2818 14.0116 10.0333C12.0555 10.9508 10.6029 12.7475 10.1505 14.901ZM15.3368 9.56182C15.528 9.81667 16.7959 11.5369 17.9363 13.6331C20.4148 12.7029 21.4597 11.3012 21.5872 11.1228C20.3575 10.0333 18.7391 9.37067 16.9679 9.37067C16.4072 9.37067 15.8593 9.44076 15.3368 9.56182ZM22.3581 11.9256C22.2116 12.1231 21.0456 13.6204 18.4715 14.6717C18.6308 15.003 18.7901 15.3407 18.9367 15.6784C18.9876 15.7994 19.0386 15.9205 19.0896 16.0352C21.4088 15.7421 23.7088 16.2136 23.9382 16.2582C23.9191 14.6207 23.3329 13.1107 22.3581 11.9256Z" fill="url(#paint0_linear_50_7907)"/>
<defs>
<linearGradient id="paint0_linear_50_7907" x1="16.9679" y1="8.17285" x2="16.9679" y2="24.4645" gradientUnits="userSpaceOnUse">
<stop stop-color="#F2994A"/>
<stop offset="1" stop-color="#9747FF"/>
</linearGradient>
</defs>
</svg>
