<svg width="124" height="63" viewBox="0 0 124 63" fill="none" xmlns="http://www.w3.org/2000/svg">
<path d="M9.40682 0C10.9109 0 12.2238 0.305913 13.3454 0.917738C14.4926 1.52956 15.3721 2.33259 15.9839 3.3268V0.305913H22.5228V21.6051C22.5228 23.568 22.1277 25.3398 21.3374 26.9203C20.5726 28.5264 19.3872 29.801 17.7812 30.7442C16.2006 31.6875 14.2249 32.1591 11.8541 32.1591C8.69302 32.1591 6.131 31.407 4.16806 29.903C2.20512 28.4244 1.08344 26.4105 0.803021 23.8612H7.26543C7.46937 24.677 7.95373 25.3143 8.71851 25.7731C9.48329 26.2575 10.4265 26.4997 11.5482 26.4997C12.8993 26.4997 13.97 26.1046 14.7603 25.3143C15.5761 24.5495 15.9839 23.3131 15.9839 21.6051V18.5842C15.3466 19.5784 14.4671 20.3942 13.3454 21.0315C12.2238 21.6433 10.9109 21.9492 9.40682 21.9492C7.64782 21.9492 6.05452 21.5031 4.62693 20.6109C3.19934 19.6931 2.06491 18.4057 1.22365 16.7487C0.407884 15.0662 0 13.1288 0 10.9364C0 8.74401 0.407884 6.8193 1.22365 5.16228C2.06491 3.50525 3.19934 2.23061 4.62693 1.33837C6.05452 0.446123 7.64782 0 9.40682 0ZM15.9839 10.9746C15.9839 9.34308 15.5251 8.0557 14.6073 7.11247C13.7151 6.16924 12.6189 5.69762 11.3188 5.69762C10.0186 5.69762 8.90971 6.16924 7.99197 7.11247C7.09972 8.03021 6.6536 9.30485 6.6536 10.9364C6.6536 12.5679 7.09972 13.868 7.99197 14.8368C8.90971 15.78 10.0186 16.2516 11.3188 16.2516C12.6189 16.2516 13.7151 15.78 14.6073 14.8368C15.5251 13.8935 15.9839 12.6062 15.9839 10.9746Z" fill="#5F656F"/>
<path d="M47.3672 10.6305C47.3672 11.2423 47.3289 11.8796 47.2525 12.5424H32.4539C32.5559 13.868 32.9765 14.8878 33.7158 15.6015C34.4806 16.2899 35.4111 16.634 36.5073 16.634C38.1388 16.634 39.2732 15.9457 39.9105 14.5691H46.8701C46.5132 15.9712 45.8631 17.2331 44.9199 18.3548C44.0021 19.4764 42.8422 20.3559 41.4401 20.9933C40.038 21.6306 38.4702 21.9492 36.7367 21.9492C34.6463 21.9492 32.7853 21.5031 31.1538 20.6109C29.5223 19.7186 28.2476 18.444 27.3299 16.787C26.4122 15.1299 25.9533 13.1925 25.9533 10.9746C25.9533 8.75675 26.3994 6.8193 27.2917 5.16228C28.2094 3.50525 29.484 2.23061 31.1156 1.33837C32.7471 0.446123 34.6208 0 36.7367 0C38.8016 0 40.6371 0.433377 42.2431 1.30013C43.8492 2.16688 45.0983 3.40328 45.9906 5.00932C46.9083 6.61536 47.3672 8.48908 47.3672 10.6305ZM40.6753 8.90971C40.6753 7.78803 40.2929 6.89578 39.5282 6.23297C38.7634 5.57016 37.8074 5.23876 36.6602 5.23876C35.564 5.23876 34.6336 5.55741 33.8688 6.19473C33.1295 6.83205 32.6706 7.73704 32.4922 8.90971H40.6753Z" fill="#5F656F"/>
<path d="M63.818 0.0764795C66.3163 0.0764795 68.3048 0.892247 69.7833 2.52378C71.2874 4.12982 72.0394 6.34769 72.0394 9.17738V21.6433H65.5388V10.0569C65.5388 8.62929 65.1692 7.52035 64.4299 6.73008C63.6906 5.93981 62.6964 5.54467 61.4472 5.54467C60.1981 5.54467 59.2039 5.93981 58.4646 6.73008C57.7253 7.52035 57.3556 8.62929 57.3556 10.0569V21.6433H50.8168V0.305913H57.3556V3.13561C58.0185 2.19237 58.9107 1.45309 60.0324 0.917738C61.1541 0.356899 62.4159 0.0764795 63.818 0.0764795Z" fill="#5F656F"/>
<path d="M75.2832 10.9364C75.2832 8.74401 75.6911 6.8193 76.5068 5.16228C77.3481 3.50525 78.4825 2.23061 79.9101 1.33837C81.3377 0.446123 82.931 0 84.69 0C86.1941 0 87.507 0.305913 88.6286 0.917738C89.7758 1.52956 90.6553 2.33259 91.2671 3.3268V0.305913H97.806V21.6433H91.2671V18.6224C90.6298 19.6167 89.7376 20.4197 88.5904 21.0315C87.4687 21.6433 86.1558 21.9492 84.6518 21.9492C82.9183 21.9492 81.3377 21.5031 79.9101 20.6109C78.4825 19.6931 77.3481 18.4057 76.5068 16.7487C75.6911 15.0662 75.2832 13.1288 75.2832 10.9364ZM91.2671 10.9746C91.2671 9.34308 90.8083 8.0557 89.8905 7.11247C88.9983 6.16924 87.9021 5.69762 86.602 5.69762C85.3018 5.69762 84.1929 6.16924 83.2752 7.11247C82.3829 8.03021 81.9368 9.30485 81.9368 10.9364C81.9368 12.5679 82.3829 13.868 83.2752 14.8368C84.1929 15.78 85.3018 16.2516 86.602 16.2516C87.9021 16.2516 88.9983 15.78 89.8905 14.8368C90.8083 13.8935 91.2671 12.6062 91.2671 10.9746Z" fill="#5F656F"/>
<path d="M39.5295 26.0107C42.3592 26.0107 44.832 26.5716 46.9479 27.6933C49.0638 28.8149 50.6953 30.3955 51.8425 32.4349C53.0152 34.4488 53.6015 36.7814 53.6015 39.4327C53.6015 42.0584 53.0152 44.391 51.8425 46.4304C50.6953 48.4698 49.0511 50.0504 46.9097 51.1721C44.7938 52.2937 42.3337 52.8546 39.5295 52.8546H29.4727V26.0107H39.5295ZM39.1089 47.1952C41.5817 47.1952 43.5064 46.5196 44.883 45.1685C46.2596 43.8174 46.9479 41.9055 46.9479 39.4327C46.9479 36.9599 46.2596 35.0352 44.883 33.6586C43.5064 32.282 41.5817 31.5936 39.1089 31.5936H36.0115V47.1952H39.1089Z" fill="#5F656F"/>
<path d="M63.7946 35.0734C64.5594 33.9007 65.5154 32.983 66.6626 32.3202C67.8097 31.6319 69.0844 31.2877 70.4865 31.2877V38.209H68.6892C67.0577 38.209 65.834 38.5659 65.0183 39.2797C64.2025 39.968 63.7946 41.1917 63.7946 42.9507V52.8546H57.2557V31.5172H63.7946V35.0734Z" fill="#5F656F"/>
<path d="M107.747 31.6722C108.384 30.678 109.264 29.875 110.386 29.2631C111.507 28.6513 112.82 28.3454 114.324 28.3454C116.083 28.3454 117.677 28.7915 119.104 29.6838C120.532 30.576 121.653 31.8506 122.469 33.5077C123.31 35.1647 123.731 37.0894 123.731 39.2818C123.731 41.4742 123.31 43.4116 122.469 45.0941C121.653 46.7511 120.532 48.0385 119.104 48.9563C117.677 49.8485 116.083 50.2946 114.324 50.2946C112.846 50.2946 111.533 49.9887 110.386 49.3769C109.264 48.7651 108.384 47.9748 107.747 47.0061V60.1603H101.208V28.6513H107.747V31.6722ZM117.077 39.2818C117.077 37.6502 116.619 36.3756 115.701 35.4579C114.809 34.5146 113.7 34.043 112.374 34.043C111.074 34.043 109.965 34.5146 109.047 35.4579C108.155 36.4011 107.709 37.6885 107.709 39.32C107.709 40.9516 108.155 42.2389 109.047 43.1822C109.965 44.1254 111.074 44.597 112.374 44.597C113.674 44.597 114.783 44.1254 115.701 43.1822C116.619 42.2134 117.077 40.9133 117.077 39.2818Z" fill="#5F656F"/>
<path d="M93.184 56.0274L93.1835 56.0279C91.2458 57.9006 88.553 58.8196 85.5596 58.8196C82.5678 58.8196 79.8748 57.9007 77.9354 56.0277L77.9352 56.0274C76.0001 54.1597 74.7972 51.3258 74.7972 47.4559C74.7972 43.6046 77.1351 39.2399 79.6796 35.6443C82.1379 32.1713 84.7617 29.4555 85.5596 28.6749C86.3575 29.4555 88.9813 32.1713 91.4396 35.6443C93.9841 39.2399 96.322 43.6046 96.322 47.4559C96.322 51.3271 95.1191 54.1596 93.184 56.0274Z" fill="#5F656F" stroke="#5F656F" stroke-width="2.35226"/>
<ellipse cx="3.16197" cy="2.90342" rx="3.16197" ry="2.90342" transform="matrix(0.801368 -0.598171 0.625281 0.7804 69.3164 47.377)" fill="#5F656F"/>
<path d="M73.3845 47.8007C73.453 47.8065 73.5114 47.8337 73.5534 47.8718C73.5951 47.9095 73.6211 47.958 73.6294 48.0104C73.6377 48.0631 73.6283 48.122 73.5961 48.1771C73.5635 48.2327 73.5103 48.2796 73.4431 48.3064" stroke="#5F656F" stroke-width="1.97633" stroke-linecap="round" stroke-linejoin="round"/>
<path d="M75.3315 45.5658C74.8774 45.2068 74.3233 44.9859 73.7391 44.9309C73.1549 44.8759 72.567 44.9894 72.0496 45.2569C71.5323 45.5245 71.1087 45.9341 70.8325 46.434C70.5564 46.9339 70.44 47.5016 70.4981 48.0653C70.5562 48.629 70.7862 49.1635 71.159 49.601C71.5318 50.0386 72.0306 50.3596 72.5924 50.5236C73.1543 50.6875 73.7538 50.6869 74.3153 50.5219C74.8768 50.357 75.375 50.035 75.7469 49.5967" stroke="#5F656F" stroke-linecap="round" stroke-linejoin="round"/>
<path d="M88.3966 52.3418C88.4027 53.1266 88.0907 53.7395 87.3443 54.0085C86.5734 54.2863 85.7654 54.3312 85.1535 53.6622C84.6021 53.0593 84.4763 52.3082 84.76 51.5221C84.9537 50.9852 85.3657 50.771 85.8986 50.9267C86.1749 51.0076 86.4266 51.1048 86.7115 51.0114C87.9414 50.609 88.3978 50.969 88.3966 52.3418Z" fill="#5F656F"/>
<path d="M86.0509 52.4213C86.6677 52.3752 87.1352 52.6343 87.4757 53.1388C87.5669 53.2746 87.5299 53.424 87.3918 53.5025C86.8638 53.8052 86.3223 53.7579 85.7857 53.5274C85.4563 53.3854 85.1603 53.1064 85.2182 52.7701C85.2886 52.3565 85.7289 52.4437 86.0509 52.4213Z" fill="#5F656F"/>
<path d="M87.8702 52.8491C87.1733 52.0656 86.4183 51.8899 85.5659 52.0058C85.4105 52.0269 85.165 52.2487 85.1342 51.875C85.1157 51.647 85.2884 51.4265 85.4623 51.4477C86.1432 51.5299 86.7834 51.4166 87.4508 51.3331C88.0355 51.2621 87.9467 52.1515 87.8702 52.8491Z" fill="#5F656F"/>
<path d="M84.0504 47.6087C84.0442 48.4669 83.3805 49.1608 82.8119 49.8933C82.7354 49.9917 82.4985 50.0079 82.3419 49.9929C81.4513 49.907 80.6285 49.618 79.9685 48.9939C79.4257 48.4806 79.2333 47.8092 79.5676 47.1253C79.8896 46.4651 80.4582 46.1774 81.1885 46.5012C81.4315 46.6084 81.5487 46.5012 81.6893 46.343C82.1408 45.836 82.6836 45.7239 83.2893 46.0204C83.8715 46.3044 84.0306 46.8351 84.0504 47.6087Z" fill="#5F656F"/>
<path d="M83.5778 47.2855C83.4976 48.1699 83.1497 48.7168 82.7772 49.2524C82.6082 49.4966 82.3689 49.5277 82.1037 49.4829C81.3253 49.3533 80.6789 48.9696 80.1534 48.3904C79.8364 48.0416 79.7661 47.6118 80.0683 47.2282C80.3668 46.8482 80.7887 46.7573 81.1859 47.0675C81.5387 47.3428 81.7324 47.2381 81.8964 46.8856C82.1345 46.3761 82.5564 46.274 83.0251 46.4471C83.484 46.6165 83.6296 47.0127 83.5778 47.2855Z" fill="#5F656F"/>
<path d="M88.7665 46.6088C88.7283 46.1218 88.917 45.7094 89.3821 45.4429C89.8866 45.1539 90.3615 45.2311 90.7674 45.6235C90.9919 45.8402 91.1535 45.9299 91.4865 45.7805C91.938 45.5774 92.3846 45.7667 92.6979 46.1317C93.0408 46.5316 93.0544 47.0037 92.8286 47.4808C92.4635 48.2556 91.0276 49.0741 90.2308 48.9582C89.6572 48.876 88.7813 47.4945 88.7665 46.6088Z" fill="#5F656F"/>
<path d="M89.2383 46.7088C89.2445 46.3575 89.2765 46.0212 89.6737 45.8804C90.0549 45.7446 90.4262 45.7782 90.6433 46.1345C90.8579 46.4883 91.0467 46.6253 91.4291 46.3737C91.7844 46.1395 92.147 46.2043 92.3974 46.5468C92.6626 46.9093 92.4788 47.2768 92.2432 47.5558C91.7671 48.1177 91.117 48.3942 90.4015 48.4465C89.8723 48.4851 89.237 47.4936 89.2383 46.7088Z" fill="#5F656F"/>
<ellipse cx="77.0658" cy="43.119" rx="0.491586" ry="0.474479" fill="#5F656F"/>
<rect width="1.33686" height="6.69781" rx="0.668428" transform="matrix(0.886125 0.463447 -0.48953 0.871986 80.5781 35.8672)" fill="#5F656F"/>
<path d="M84.9207 27.7593C85.1182 27.5689 85.3859 27.4619 85.6651 27.4619C85.9442 27.4619 86.212 27.5689 86.4095 27.7593C87.144 28.4683 89.9124 31.3029 92.5051 34.9659C95.0656 38.5841 97.6036 43.211 97.6036 47.4569C97.6036 51.5794 96.3156 54.7422 94.1063 56.8746C91.904 59.003 88.8941 59.9967 85.6651 59.9967C82.4375 59.9967 79.4275 59.003 77.2238 56.8746C75.0145 54.7422 73.7266 51.5781 73.7266 47.4569C73.7266 43.211 76.2645 38.5841 78.825 34.9659C81.4178 31.3029 84.1861 28.4683 84.9207 27.7593Z" fill="#5F656F" stroke="#5F656F" stroke-width="0.75"/>
<ellipse cx="3.16197" cy="2.90342" rx="3.16197" ry="2.90342" transform="matrix(0.801368 -0.598171 0.625281 0.7804 69.4219 47.3779)" fill="#5F656F"/>
<path d="M73.9371 49.2159C74.2039 49.1096 74.4261 48.92 74.568 48.6773C74.7099 48.4346 74.7634 48.153 74.7198 47.8776C74.6762 47.6021 74.538 47.3488 74.3275 47.1581C74.117 46.9674 73.8462 46.8504 73.5587 46.8259" stroke="#5F656F" stroke-linecap="round" stroke-linejoin="round"/>
<path d="M88.502 52.3428C88.5082 53.1275 88.1961 53.7404 87.4498 54.0095C86.6788 54.2873 85.8709 54.3321 85.259 53.6632C84.7076 53.0603 84.5818 52.3091 84.8655 51.5231C85.0592 50.9862 85.4712 50.7719 86.0041 50.9277C86.2804 51.0086 86.532 51.1058 86.817 51.0124C88.0469 50.61 88.5033 50.97 88.502 52.3428Z" fill="#141414"/>
<path d="M86.1564 52.4222C86.7731 52.3761 87.2407 52.6353 87.5811 53.1398C87.6724 53.2755 87.6354 53.425 87.4972 53.5035C86.9693 53.8062 86.4278 53.7589 85.8912 53.5284C85.5618 53.3864 85.2657 53.1074 85.3237 52.771C85.394 52.3575 85.8344 52.4447 86.1564 52.4222Z" fill="#5F656F"/>
<path d="M87.9757 52.8501C87.2787 52.0665 86.5238 51.8909 85.6714 52.0067C85.516 52.0279 85.2705 52.2497 85.2396 51.876C85.2211 51.648 85.3938 51.4275 85.5678 51.4487C86.2487 51.5309 86.8889 51.4175 87.5563 51.3341C88.141 51.2631 88.0522 52.1525 87.9757 52.8501Z" fill="#5F656F"/>
<path d="M84.1558 47.6096C84.1497 48.4679 83.486 49.1618 82.9173 49.8942C82.8409 49.9926 82.604 50.0088 82.4474 49.9939C81.5567 49.9079 80.7339 49.6189 80.074 48.9948C79.5312 48.4816 79.3388 47.8102 79.6731 47.1263C79.995 46.4661 80.5637 46.1783 81.294 46.5022C81.537 46.6093 81.6542 46.5022 81.7948 46.344C82.2463 45.837 82.7891 45.7249 83.3947 46.0214C83.977 46.3054 84.1361 46.8361 84.1558 47.6096Z" fill="#141414"/>
<path d="M83.6832 47.2864C83.6031 48.1709 83.2552 48.7177 82.8827 49.2534C82.7137 49.4975 82.4743 49.5287 82.2091 49.4838C81.4308 49.3543 80.7844 48.9706 80.2589 48.3914C79.9418 48.0426 79.8715 47.6128 80.1738 47.2291C80.4723 46.8492 80.8942 46.7583 81.2914 47.0684C81.6442 47.3437 81.8378 47.2391 82.0019 46.8866C82.24 46.3771 82.6618 46.2749 83.1306 46.4481C83.5895 46.6175 83.735 47.0136 83.6832 47.2864Z" fill="#141414"/>
<path d="M88.872 46.6098C88.8337 46.1227 89.0225 45.7104 89.4875 45.4438C89.9921 45.1548 90.467 45.2321 90.8728 45.6245C91.0973 45.8412 91.2589 45.9309 91.592 45.7814C92.0435 45.5784 92.49 45.7677 92.8034 46.1327C93.1463 46.5326 93.1599 47.0047 92.9341 47.4818C92.569 48.2566 91.1331 49.075 90.3362 48.9592C89.7626 48.877 88.8868 47.4955 88.872 46.6098Z" fill="#141414"/>
<path d="M89.3438 46.7098C89.3499 46.3585 89.382 46.0221 89.7792 45.8814C90.1604 45.7456 90.5317 45.7792 90.7488 46.1355C90.9634 46.4893 91.1522 46.6263 91.5346 46.3747C91.8898 46.1405 92.2525 46.2052 92.5029 46.5478C92.7681 46.9103 92.5843 47.2778 92.3487 47.5568C91.8726 48.1186 91.2225 48.3952 90.507 48.4475C89.9778 48.4861 89.3425 47.4945 89.3438 46.7098Z" fill="#141414"/>
<ellipse cx="77.1713" cy="43.12" rx="0.491586" ry="0.474479" fill="#5F656F"/>
<rect width="1.33686" height="6.69781" rx="0.668428" transform="matrix(0.886125 0.463447 -0.48953 0.871986 80.6836 35.8682)" fill="#5F656F"/>
</svg>
