<svg width="30" height="30" viewBox="0 0 30 30" fill="none" xmlns="http://www.w3.org/2000/svg">
<path d="M12.3629 15.0916C12.3629 13.5837 13.5857 12.361 15.0945 12.361C16.6033 12.361 17.8268 13.5837 17.8268 15.0916C17.8268 16.5995 16.6033 17.8222 15.0945 17.8222C13.5857 17.8222 12.3629 16.5995 12.3629 15.0916ZM10.8859 15.0916C10.8859 17.4146 12.7701 19.2977 15.0945 19.2977C17.419 19.2977 19.3031 17.4146 19.3031 15.0916C19.3031 12.7686 17.419 10.8855 15.0945 10.8855C12.7701 10.8855 10.8859 12.7686 10.8859 15.0916ZM18.4862 10.7187C18.4861 10.9131 18.5437 11.1032 18.6518 11.2649C18.7598 11.4266 18.9133 11.5526 19.093 11.6271C19.2727 11.7016 19.4704 11.7211 19.6612 11.6833C19.852 11.6454 20.0273 11.5519 20.1649 11.4144C20.3025 11.277 20.3963 11.1019 20.4343 10.9113C20.4723 10.7206 20.4529 10.523 20.3786 10.3433C20.3042 10.1637 20.1782 10.0101 20.0165 9.90205C19.8548 9.79398 19.6647 9.73626 19.4701 9.73618H19.4698C19.209 9.7363 18.959 9.83985 18.7746 10.0241C18.5902 10.2083 18.4864 10.4581 18.4862 10.7187ZM11.7833 21.759C10.9842 21.7226 10.5499 21.5896 10.2613 21.4772C9.87861 21.3283 9.60558 21.151 9.31852 20.8645C9.03146 20.578 8.85377 20.3054 8.70545 19.923C8.59293 19.6347 8.45983 19.2005 8.4235 18.4019C8.38377 17.5385 8.37583 17.2791 8.37583 15.0916C8.37583 12.9042 8.38442 12.6456 8.4235 11.7814C8.45989 10.9828 8.59398 10.5495 8.70545 10.2603C8.85442 9.87785 9.03185 9.60499 9.31852 9.3181C9.60518 9.03121 9.87795 8.85363 10.2613 8.7054C10.5498 8.59295 10.9842 8.45993 11.7833 8.42362C12.6472 8.38391 12.9068 8.37598 15.0945 8.37598C17.2823 8.37598 17.5421 8.38457 18.4067 8.42362C19.2058 8.45999 19.6394 8.594 19.9288 8.7054C20.3115 8.85363 20.5845 9.03161 20.8715 9.3181C21.1586 9.6046 21.3356 9.87785 21.4846 10.2603C21.5971 10.5486 21.7302 10.9828 21.7666 11.7814C21.8063 12.6456 21.8142 12.9042 21.8142 15.0916C21.8142 17.2791 21.8063 17.5377 21.7666 18.4019C21.7302 19.2005 21.5964 19.6345 21.4846 19.923C21.3356 20.3054 21.1582 20.5783 20.8715 20.8645C20.5849 21.1508 20.3115 21.3283 19.9288 21.4772C19.6403 21.5897 19.2058 21.7227 18.4067 21.759C17.5428 21.7987 17.2833 21.8066 15.0945 21.8066C12.9058 21.8066 12.647 21.7987 11.7833 21.759ZM11.7155 6.95C10.8429 6.98971 10.2467 7.12797 9.72603 7.33046C9.18679 7.53957 8.7303 7.8201 8.27414 8.27527C7.81797 8.73043 7.538 9.18737 7.32877 9.72628C7.12616 10.247 6.98781 10.8425 6.94807 11.7145C6.90768 12.5879 6.89844 12.8671 6.89844 15.0916C6.89844 17.316 6.90768 17.5953 6.94807 18.4686C6.98781 19.3407 7.12616 19.9362 7.32877 20.4569C7.538 20.9955 7.81804 21.4529 8.27414 21.9079C8.73023 22.3629 9.18679 22.643 9.72603 22.8527C10.2477 23.0552 10.8429 23.1934 11.7155 23.2332C12.5898 23.2729 12.8687 23.2828 15.0945 23.2828C17.3203 23.2828 17.5997 23.2735 18.4736 23.2332C19.3462 23.1934 19.942 23.0552 20.4631 22.8527C21.002 22.643 21.4588 22.3631 21.9149 21.9079C22.3711 21.4527 22.6505 20.9955 22.8603 20.4569C23.0629 19.9362 23.2019 19.3406 23.241 18.4686C23.2807 17.5946 23.29 17.316 23.29 15.0916C23.29 12.8671 23.2807 12.5879 23.241 11.7145C23.2013 10.8424 23.0629 10.2467 22.8603 9.72628C22.6505 9.1877 22.3704 8.73115 21.9149 8.27527C21.4595 7.81938 21.002 7.53957 20.4637 7.33046C19.942 7.12797 19.3462 6.98905 18.4743 6.95C17.6004 6.91029 17.321 6.90039 15.0952 6.90039C12.8694 6.90039 12.5898 6.90963 11.7155 6.95Z" fill="url(#paint0_linear_31_6827)"/>
<defs>
<linearGradient id="paint0_linear_31_6827" x1="22.9749" y1="23.2828" x2="6.59257" y2="6.89122" gradientUnits="userSpaceOnUse">
<stop stop-color="#FBE18A"/>
<stop offset="0.21" stop-color="#FCBB45"/>
<stop offset="0.38" stop-color="#F75274"/>
<stop offset="0.52" stop-color="#D53692"/>
<stop offset="0.74" stop-color="#8F39CE"/>
<stop offset="1" stop-color="#5B4FE9"/>
</linearGradient>
</defs>
</svg>
