<svg width="136" height="41" viewBox="0 0 136 41" fill="none" xmlns="http://www.w3.org/2000/svg">
<path d="M37.1851 25.6399C34.9737 25.6399 32.9018 24.7035 31.0191 23.1795L31.4774 21.0278L31.4973 20.9481C31.9057 18.6571 33.2006 14.8121 37.1851 14.8121C40.1735 14.8121 42.604 17.2426 42.604 20.2309C42.594 23.2093 40.1635 25.6399 37.1851 25.6399ZM37.1851 9.32346C32.0949 9.32346 28.1503 12.6306 26.5466 18.0694C24.0961 14.3937 22.2434 9.9809 21.1576 6.26538H15.6789V20.5198C15.6789 23.3289 13.3879 25.6199 10.5788 25.6199C7.76978 25.6199 5.47871 23.3289 5.47871 20.5198V6.26538H6.24209e-05V20.5198C-0.0198599 26.3571 4.73162 31.1484 10.5689 31.1484C16.4061 31.1484 21.1576 26.3571 21.1576 20.5198V18.1291C22.2234 20.3505 23.5283 22.5917 25.1122 24.584L21.7553 40.3625H27.3634L29.7939 28.9171C31.9256 30.2818 34.3761 31.1384 37.1851 31.1384C43.1917 31.1384 48.0826 26.2176 48.0826 20.211C48.0826 14.2144 43.1917 9.32346 37.1851 9.32346Z" fill="#5F656F"/>
<path d="M64.8068 9.94125L68.343 24.1957L72.2379 9.94125H76.8798L70.8931 30.541H66.2512L62.5755 16.1969L58.9098 30.531H54.2679L48.2812 9.93129H52.9232L56.818 24.1857L60.3542 9.93129H64.8068V9.94125ZM87.9865 9.32366C81.96 9.32366 77.079 14.2146 77.079 20.2311C77.079 26.2576 81.9699 31.1386 87.9865 31.1386C94.013 31.1386 98.9039 26.2576 98.9039 20.2311C98.9039 14.2046 94.013 9.32366 87.9865 9.32366ZM87.9865 26.6561C84.4403 26.6561 81.5715 23.7873 81.5715 20.2411C81.5715 16.6949 84.4503 13.8261 87.9865 13.8261C91.5326 13.8261 94.4015 16.6949 94.4015 20.2411C94.4015 23.7773 91.5326 26.6561 87.9865 26.6561ZM112.162 14.5533C109.044 14.5533 106.524 17.0834 106.524 20.1913V30.531H101.852V9.94125H106.524V13.1089C106.524 13.1089 108.516 9.93129 112.61 9.93129H114.045V14.5533H112.162ZM127.841 19.4342C131.158 17.5615 133.409 14.0054 133.409 9.93129H128.738C128.738 13.3679 125.948 16.157 122.512 16.157H121.884V0H117.213V30.531H121.884V20.8288H122.442C122.9 20.8288 123.498 21.1276 123.767 21.4962L130.401 30.531H135.999L127.841 19.4342Z" fill="#2B2F35"/>
</svg>
